<?xml version="1.0" encoding="utf-8"?>
<svg viewBox="45.142 2.97 512 512" xmlns="http://www.w3.org/2000/svg">
  <path d="M 109.142 498.97 C 109.142 507.77 101.892 514.97 93.142 514.97 L 61.142 514.97 C 52.392 514.97 45.142 507.77 45.142 498.97 L 45.142 34.97 C 45.142 17.22 59.392 2.97 77.142 2.97 C 94.892 2.97 109.142 17.22 109.142 34.97 L 109.142 498.97 Z M 521.442 2.97 C 515.077 2.97 508.432 4.32 502.102 7.203 C 456.412 28.063 422.542 35.143 394.302 35.143 C 334.342 35.143 299.492 3.283 230.402 3.273 C 206.042 3.275 176.742 7.837 141.142 18.72 L 141.142 369.22 C 173.142 359.236 201.012 355.12 225.992 355.12 C 299.622 355.12 350.892 386.9 424.592 386.9 C 456.502 386.9 492.612 380.929 535.692 363.81 C 549.242 358.87 557.142 347.37 557.142 335.07 L 557.142 33.7 C 557.142 14.07 540.442 2.97 521.442 2.97 Z" style="fill: rgb(43, 183, 141);"/>
</svg>