<?xml version="1.0" encoding="utf-8"?>
<svg viewBox="23.165 34.856 512 512" xmlns="http://www.w3.org/2000/svg">
  <path d="M 255.165 154.856 C 255.165 141.556 265.865 130.856 279.165 130.856 C 292.465 130.856 303.165 141.556 303.165 154.856 L 303.165 278.056 L 388.465 334.856 C 399.465 342.256 402.465 357.156 394.265 368.156 C 387.765 379.156 372.865 382.156 361.865 373.956 L 265.865 309.956 C 259.165 306.356 255.165 298.856 255.165 289.956 L 255.165 154.856 Z M 279.165 34.856 C 420.565 34.856 535.165 149.456 535.165 290.856 C 535.165 432.256 420.565 546.856 279.165 546.856 C 137.765 546.856 23.165 432.256 23.165 290.856 C 23.165 149.456 137.765 34.856 279.165 34.856 Z M 71.165 290.856 C 71.165 405.756 164.265 498.856 279.165 498.856 C 394.065 498.856 487.165 405.756 487.165 290.856 C 487.165 175.956 394.065 82.856 279.165 82.856 C 164.265 82.856 71.165 175.956 71.165 290.856 Z" style="fill: rgb(43, 183, 141);"/>
</svg>