<?xml version="1.0" encoding="utf-8"?>
<svg viewBox="29.104 0 512 512" xmlns="http://www.w3.org/2000/svg">
  <path d="M 541.104 256 C 541.104 397.4 426.504 512 285.104 512 C 143.704 512 29.104 397.4 29.104 256 C 29.104 114.6 143.704 0 285.104 0 C 426.504 0 541.104 114.6 541.104 256 Z M 206.904 63.19 L 216.904 80.62 C 219.604 85.46 221.104 90.93 221.104 96.5 L 221.104 137.9 C 221.104 141.8 222.704 145.6 225.404 148.3 C 231.704 154.6 241.904 153.1 247.404 147.1 L 261.004 130.1 C 265.704 124.2 273.904 122.4 280.704 125.8 L 295.904 133.4 C 299.304 135.1 302.204 136 306.904 136 C 313.404 136 319.704 133.4 324.304 128.8 L 328.204 124.9 C 331.104 121.1 335.604 121.2 339.204 123.1 L 368.504 137.7 C 376.204 141.6 381.104 149.5 381.104 158.1 C 381.104 168.6 374.004 177.8 363.804 180.3 L 328.404 189.2 C 321.004 191 313.304 190.7 305.204 188.3 L 273.204 177.7 C 270.804 176.6 267.304 176 263.904 176 C 256.904 176 249.204 178.3 244.504 182.5 L 205.104 212 C 195.004 219.6 189.104 231.4 189.104 244 L 189.104 272 C 189.104 298.5 210.604 320 237.104 320 L 269.104 320 C 277.904 320 285.104 327.2 285.104 336 L 285.104 384 C 285.104 401.7 299.404 416 317.104 416 C 327.204 416 336.704 411.3 342.704 403.2 L 368.304 369.1 C 376.604 357.1 381.104 344.5 381.104 330.7 L 381.104 318.6 C 381.104 314.7 383.704 311.3 387.504 310.4 L 392.804 309.1 C 404.704 306.1 413.104 295.4 413.104 283.1 C 413.104 275.1 410.304 269.2 405.304 264.2 L 371.804 230.7 C 367.204 226.1 367.204 221 371.804 217.3 C 377.504 211.6 385.904 209.6 393.604 212.2 L 407.704 216.9 C 420.004 220.1 433.404 215.4 439.204 203.8 C 442.704 196.8 450.404 193.1 457.204 194.6 L 485.504 200.1 C 460.204 112.4 380.604 48 285.104 48 C 257.404 48 230.204 53.4 206.904 63.19 Z" style="fill: rgb(43, 183, 141);"/>
</svg>